<?xml version="1.0" encoding="UTF-8"?>
<svg version="1.1" xmlns="http://www.w3.org/2000/svg" width="24" height="24">
<path d="M0 0 C0.66 0 1.32 0 2 0 C2 0.99 2 1.98 2 3 C3.65 2.67 5.3 2.34 7 2 C6.67 3.65 6.34 5.3 6 7 C6.99 7 7.98 7 9 7 C9 7.66 9 8.32 9 9 C8.01 9 7.02 9 6 9 C6.2165625 9.60328125 6.433125 10.2065625 6.65625 10.828125 C6.9346875 11.62734375 7.213125 12.4265625 7.5 13.25 C7.7784375 14.03890625 8.056875 14.8278125 8.34375 15.640625 C9 18 9 18 9 22 C4.05 22 -0.9 22 -6 22 C-6 21.01 -6 20.02 -6 19 C-6.66 19 -7.32 19 -8 19 C-8 19.99 -8 20.98 -8 22 C-8.66 22 -9.32 22 -10 22 C-10 21.01 -10 20.02 -10 19 C-10.66 19 -11.32 19 -12 19 C-12 19.99 -12 20.98 -12 22 C-12.66 22 -13.32 22 -14 22 C-14.22162329 20.37675914 -14.42689803 18.751279 -14.625 17.125 C-14.74101562 16.22007813 -14.85703125 15.31515625 -14.9765625 14.3828125 C-14.98429688 13.59648437 -14.99203125 12.81015625 -15 12 C-14.34 11.34 -13.68 10.68 -13 10 C-12.01 10 -11.02 10 -10 10 C-9.731875 9.360625 -9.46375 8.72125 -9.1875 8.0625 C-8 6 -8 6 -5 5 C-5.33 4.01 -5.66 3.02 -6 2 C-3.03 2.495 -3.03 2.495 0 3 C0 2.01 0 1.02 0 0 Z " fill="#D5EAFD" transform="translate(15,1)"/>
<path d="M0 0 C0.33 0.99 0.66 1.98 1 3 C1.94875 3.309375 2.8975 3.61875 3.875 3.9375 C7.31208386 5.10610851 8.32529611 5.83667043 10 9 C10 10.32 10 11.64 10 13 C5.05 13 0.1 13 -5 13 C-5 12.01 -5 11.02 -5 10 C-5.66 10 -6.32 10 -7 10 C-7 10.99 -7 11.98 -7 13 C-7.66 13 -8.32 13 -9 13 C-9.33 11.68 -9.66 10.36 -10 9 C-9.36191406 8.68546875 -8.72382813 8.3709375 -8.06640625 8.046875 C-7.24011719 7.61890625 -6.41382813 7.1909375 -5.5625 6.75 C-4.73878906 6.33234375 -3.91507813 5.9146875 -3.06640625 5.484375 C-0.83155525 4.17422901 -0.83155525 4.17422901 -0.21484375 1.828125 C-0.10849609 0.92320313 -0.10849609 0.92320313 0 0 Z " fill="#D7EBFD" transform="translate(14,10)"/>
<path d="M0 0 C0.66 0 1.32 0 2 0 C2 0.99 2 1.98 2 3 C3.65 2.67 5.3 2.34 7 2 C6.67 3.65 6.34 5.3 6 7 C6.99 7 7.98 7 9 7 C9 7.66 9 8.32 9 9 C8.01 9 7.02 9 6 9 C6.33 10.98 6.66 12.96 7 15 C0.3313253 12.53012048 0.3313253 12.53012048 -1.25 10 C-1.4975 9.34 -1.745 8.68 -2 8 C-2.515625 7.484375 -3.03125 6.96875 -3.5625 6.4375 C-5 5 -5 5 -6 2 C-3.03 2.495 -3.03 2.495 0 3 C0 2.01 0 1.02 0 0 Z " fill="#FCDF84" transform="translate(15,1)"/>
<path d="M0 0 C0.33 0.99 0.66 1.98 1 3 C1.66 3.33 2.32 3.66 3 4 C2.05016642 5.50539661 1.08988109 7.00420347 0.125 8.5 C-0.40867187 9.3353125 -0.94234375 10.170625 -1.4921875 11.03125 C-1.98976563 11.6809375 -2.48734375 12.330625 -3 13 C-3.66 13 -4.32 13 -5 13 C-5 12.01 -5 11.02 -5 10 C-5.66 10 -6.32 10 -7 10 C-7 10.99 -7 11.98 -7 13 C-7.66 13 -8.32 13 -9 13 C-9.33 11.68 -9.66 10.36 -10 9 C-9.36191406 8.68546875 -8.72382813 8.3709375 -8.06640625 8.046875 C-7.24011719 7.61890625 -6.41382813 7.1909375 -5.5625 6.75 C-4.73878906 6.33234375 -3.91507813 5.9146875 -3.06640625 5.484375 C-0.83155525 4.17422901 -0.83155525 4.17422901 -0.21484375 1.828125 C-0.10849609 0.92320313 -0.10849609 0.92320313 0 0 Z " fill="#A4C7F2" transform="translate(14,10)"/>
<path d="M0 0 C0.33 0.99 0.66 1.98 1 3 C1.99 3 2.98 3 4 3 C4 3.66 4 4.32 4 5 C3.01 5 2.02 5 1 5 C1.33 6.98 1.66 8.96 2 11 C-0.31 10.01 -2.62 9.02 -5 8 C-5 5 -5 5 -2.5 2.3125 C-1.675 1.549375 -0.85 0.78625 0 0 Z " fill="#FCCA4C" transform="translate(20,5)"/>
<path d="M0 0 C0.66 0 1.32 0 2 0 C2 1.65 2 3.3 2 5 C-1.01031744 5.93423645 -1.86650268 6.04449911 -5 5 C-5.33 4.01 -5.66 3.02 -6 2 C-3.03 2.495 -3.03 2.495 0 3 C0 2.01 0 1.02 0 0 Z " fill="#FDE479" transform="translate(15,1)"/>
<path d="M0 0 C2 1.75 2 1.75 4 4 C4 5.32 4 6.64 4 8 C2.68 8 1.36 8 0 8 C0 5.36 0 2.72 0 0 Z " fill="#B8DAF9" transform="translate(20,15)"/>
<path d="M0 0 C0.66 0.33 1.32 0.66 2 1 C0.35 1.66 -1.3 2.32 -3 3 C-3 4.32 -3 5.64 -3 7 C-3.66 7 -4.32 7 -5 7 C-5.33 5.68 -5.66 4.36 -6 3 C-4.03533587 1.93224776 -2.03144641 0.93446535 0 0 Z " fill="#94C5FD" transform="translate(10,16)"/>
</svg>
